<?xml version="1.0" encoding="UTF-8"?>
<svg version="1.1" xmlns="http://www.w3.org/2000/svg" width="48" height="48">
<path d="M0 0 C1.31419922 -0.01224609 2.62839844 -0.02449219 3.98242188 -0.03710938 C5.23474609 -0.03904297 6.48707031 -0.04097656 7.77734375 -0.04296875 C8.93355225 -0.04707764 10.08976074 -0.05118652 11.28100586 -0.05541992 C14.0625 0.1875 14.0625 0.1875 16.0625 2.1875 C16.32128906 4.49414063 16.32128906 4.49414063 16.328125 7.34375 C16.33199219 8.87708984 16.33199219 8.87708984 16.3359375 10.44140625 C16.32820313 11.51261719 16.32046875 12.58382813 16.3125 13.6875 C16.32410156 15.29431641 16.32410156 15.29431641 16.3359375 16.93359375 C16.33335938 17.95582031 16.33078125 18.97804688 16.328125 20.03125 C16.32586914 20.97162109 16.32361328 21.91199219 16.32128906 22.88085938 C16.0625 25.1875 16.0625 25.1875 14.0625 27.1875 C13.0725 27.1875 12.0825 27.1875 11.0625 27.1875 C10.918125 27.826875 10.77375 28.46625 10.625 29.125 C10.0625 31.1875 10.0625 31.1875 9.0625 32.1875 C4.42234675 32.4416555 -0.22871306 32.37272798 -4.875 32.375 C-6.18919922 32.38724609 -7.50339844 32.39949219 -8.85742188 32.41210938 C-10.10974609 32.41404297 -11.36207031 32.41597656 -12.65234375 32.41796875 C-14.38665649 32.42413208 -14.38665649 32.42413208 -16.15600586 32.43041992 C-18.9375 32.1875 -18.9375 32.1875 -20.9375 30.1875 C-21.19628906 27.88085938 -21.19628906 27.88085938 -21.203125 25.03125 C-21.20570312 24.00902344 -21.20828125 22.98679687 -21.2109375 21.93359375 C-21.19933594 20.32677734 -21.19933594 20.32677734 -21.1875 18.6875 C-21.19523437 17.61628906 -21.20296875 16.54507812 -21.2109375 15.44140625 C-21.20835938 14.41917969 -21.20578125 13.39695312 -21.203125 12.34375 C-21.20086914 11.40337891 -21.19861328 10.46300781 -21.19628906 9.49414062 C-20.9375 7.1875 -20.9375 7.1875 -18.9375 5.1875 C-17.9475 5.1875 -16.9575 5.1875 -15.9375 5.1875 C-15.793125 4.548125 -15.64875 3.90875 -15.5 3.25 C-13.97000973 -2.35996432 -4.74490544 0.00232025 0 0 Z M-11.9375 4.1875 C-11.9375 4.5175 -11.9375 4.8475 -11.9375 5.1875 C-4.6775 5.5175 2.5825 5.8475 10.0625 6.1875 C10.5575 14.6025 10.5575 14.6025 11.0625 23.1875 C11.3925 23.1875 11.7225 23.1875 12.0625 23.1875 C12.0625 16.9175 12.0625 10.6475 12.0625 4.1875 C4.1425 4.1875 -3.7775 4.1875 -11.9375 4.1875 Z M-17.9375 10.1875 C-18.00976502 12.04037502 -18.0213122 13.89583878 -18 15.75 C-17.99097656 16.76191406 -17.98195313 17.77382813 -17.97265625 18.81640625 C-17.96105469 19.59886719 -17.94945312 20.38132812 -17.9375 21.1875 C-17.009375 21.125625 -16.08125 21.06375 -15.125 21 C-11.9375 21.1875 -11.9375 21.1875 -10.0625 22.6875 C-9.69125 23.1825 -9.32 23.6775 -8.9375 24.1875 C-6.35409649 23.03932066 -4.6307956 21.91225246 -2.5 20 C0.0625 18.1875 0.0625 18.1875 2.75 18.375 C5.0625 19.1875 5.0625 19.1875 7.0625 20.1875 C7.0625 16.5575 7.0625 12.9275 7.0625 9.1875 C3.08328906 9.16067386 -0.89574341 9.14074607 -4.875 9.125 C-6.01130859 9.11662109 -7.14761719 9.10824219 -8.31835938 9.09960938 C-9.39794922 9.09638672 -10.47753906 9.09316406 -11.58984375 9.08984375 C-12.59007568 9.08460693 -13.59030762 9.07937012 -14.62084961 9.07397461 C-16.89957228 8.92568905 -16.89957228 8.92568905 -17.9375 10.1875 Z " fill="#000000" transform="translate(26.9375,7.8125)"/>
<path d="M0 0 C1.32 0.66 2.64 1.32 4 2 C3.67 2.99 3.34 3.98 3 5 C1.68 4.67 0.36 4.34 -1 4 C-0.67 2.68 -0.34 1.36 0 0 Z " fill="#000000" transform="translate(17,21)"/>
</svg>
