<?xml version="1.0" encoding="UTF-8"?>
<svg version="1.1" xmlns="http://www.w3.org/2000/svg" width="50" height="50">
<path d="M0 0 C12.54 0 25.08 0 38 0 C38 1.65 38 3.3 38 5 C25.46 5 12.92 5 0 5 C0 3.35 0 1.7 0 0 Z " fill="#5D7A8D" transform="translate(6,10)"/>
<path d="M0 0 C10.23 0 20.46 0 31 0 C31.33 1.32 31.66 2.64 32 4 C31 5 31 5 28.04077148 5.11352539 C26.74727783 5.10828857 25.45378418 5.10305176 24.12109375 5.09765625 C23.09110008 5.09553383 23.09110008 5.09553383 22.04029846 5.09336853 C19.83932199 5.08775479 17.63844591 5.07520007 15.4375 5.0625 C13.94856917 5.05748676 12.45963676 5.05292355 10.97070312 5.04882812 C7.31376925 5.03778093 3.65689442 5.02050713 0 5 C0 3.35 0 1.7 0 0 Z " fill="#5E7B8C" transform="translate(6,35)"/>
<path d="M0 0 C1.27617187 0.00483398 1.27617187 0.00483398 2.578125 0.00976562 C3.46757812 0.01814453 4.35703125 0.02652344 5.2734375 0.03515625 C6.170625 0.03966797 7.0678125 0.04417969 7.9921875 0.04882812 C10.21100398 0.06063034 12.42968768 0.0770947 14.6484375 0.09765625 C15.3084375 1.41765625 15.9684375 2.73765625 16.6484375 4.09765625 C14.6484375 6.09765625 14.6484375 6.09765625 12.70898438 6.34057617 C11.93619141 6.33646729 11.16339844 6.3323584 10.3671875 6.328125 C9.10455078 6.32522461 9.10455078 6.32522461 7.81640625 6.32226562 C6.93597656 6.31001953 6.05554687 6.29777344 5.1484375 6.28515625 C4.26800781 6.28451172 3.38757812 6.28386719 2.48046875 6.28320312 C-4.07076135 6.23805682 -4.07076135 6.23805682 -6.3515625 5.09765625 C-6.3515625 3.77765625 -6.3515625 2.45765625 -6.3515625 1.09765625 C-4.00303722 -0.07660639 -2.61382185 -0.01742548 0 0 Z " fill="#5E7B89" transform="translate(12.3515625,21.90234375)"/>
</svg>
