<?xml version="1.0" encoding="UTF-8"?>
<svg version="1.1" xmlns="http://www.w3.org/2000/svg" width="48" height="48">
<path d="M0 0 C0.639375 -0.01289063 1.27875 -0.02578125 1.9375 -0.0390625 C5.49115788 1.10510765 6.81257397 2.58649353 9 5.625 C9.73900899 9.47192714 9.6981506 13.21875813 9.625 17.125 C9.65400391 18.67380859 9.65400391 18.67380859 9.68359375 20.25390625 C9.652241 25.11358216 9.60460821 27.78515174 6.7109375 31.8046875 C2.97973756 34.31007535 2.97973756 34.31007535 0 34.25 C-0.639375 34.26289062 -1.27875 34.27578125 -1.9375 34.2890625 C-5.49115788 33.14489235 -6.81257397 31.66350647 -9 28.625 C-9.73900899 24.77807286 -9.6981506 21.03124187 -9.625 17.125 C-9.64433594 16.09246094 -9.66367188 15.05992188 -9.68359375 13.99609375 C-9.652241 9.13641784 -9.60460821 6.46484826 -6.7109375 2.4453125 C-2.97973756 -0.06007535 -2.97973756 -0.06007535 0 0 Z M-4.6640625 6.6953125 C-6.33063817 10.3500837 -6.39904404 13.11765983 -6.375 17.125 C-6.38273437 18.4140625 -6.39046875 19.703125 -6.3984375 21.03125 C-5.98363519 24.77260417 -5.34468972 26.70789776 -3 29.625 C0 30.45833333 0 30.45833333 3 29.625 C6.24035809 25.59356858 6.40541637 22.19439532 6.375 17.125 C6.38660156 15.19140625 6.38660156 15.19140625 6.3984375 13.21875 C5.98363519 9.47739583 5.34468972 7.54210224 3 4.625 C-0.68779519 3.85670934 -2.23735856 3.6761738 -4.6640625 6.6953125 Z " fill="#000000" transform="translate(24,1.375)"/>
<path d="M0 0 C0.99 0 1.98 0 3 0 C3.15855469 0.74765625 3.31710938 1.4953125 3.48046875 2.265625 C4.91231732 8.40530083 4.91231732 8.40530083 8.1875 13.6875 C11.95617014 15.44621273 14.91770717 15.77008769 19 15 C22.00931158 13.84444986 22.00931158 13.84444986 24 11 C25.28859639 7.38881253 26.20511052 3.74825936 27 0 C27.99 0 28.98 0 30 0 C30.62198953 9.70994764 30.62198953 9.70994764 28.3125 14.5 C25.9774567 17.02437113 24.13096636 18.59106514 21 20 C19.68 20 18.36 20 17 20 C17 21.98 17 23.96 17 26 C15.68 26 14.36 26 13 26 C13 24.02 13 22.04 13 20 C12.113125 19.938125 11.22625 19.87625 10.3125 19.8125 C5.1474387 18.54559817 2.86705868 15.30058803 0 11 C-0.1953125 8.30078125 -0.1953125 8.30078125 -0.125 5.3125 C-0.10695313 4.31863281 -0.08890625 3.32476563 -0.0703125 2.30078125 C-0.04710937 1.54152344 -0.02390625 0.78226563 0 0 Z " fill="#000000" transform="translate(9,21)"/>
</svg>
